HIERARCHY
ROOT Hips
{
	OFFSET 0.00000 0.00000 0.00000
	CHANNELS 6 Xposition Yposition Zposition Zrotation Yrotation Xrotation 
	JOINT LHipJoint
	{
		OFFSET 0 0 0
		CHANNELS 3 Zrotation Yrotation Xrotation
		JOINT LeftHip
		{
			OFFSET 1.66553 -1.82942 0.76350
			CHANNELS 3 Zrotation Yrotation Xrotation
			JOINT LeftKnee
			{
				OFFSET 2.41740 -6.64177 0.00000
				CHANNELS 3 Zrotation Yrotation Xrotation
				JOINT LeftAnkle
				{
					OFFSET 2.71614 -7.46254 0.00000
					CHANNELS 3 Zrotation Yrotation Xrotation
					JOINT LeftToe
					{
						OFFSET 0.08005 -0.21993 1.82495
						CHANNELS 3 Zrotation Yrotation Xrotation
						End Site
						{
							OFFSET 0.00000 -0.00000 0.93441
						}
					}
				}
			}
		}
	}
	JOINT RHipJoint
	{
		OFFSET 0 0 0
		CHANNELS 3 Zrotation Yrotation Xrotation
		JOINT RightHip
		{
			OFFSET -1.63725 -1.82942 0.76350
			CHANNELS 3 Zrotation Yrotation Xrotation
			JOINT RightKnee
			{
				OFFSET -2.40538 -6.60872 0.00000
				CHANNELS 3 Zrotation Yrotation Xrotation
				JOINT RightAnkle
				{
					OFFSET -2.73312 -7.50919 0.00000
					CHANNELS 3 Zrotation Yrotation Xrotation
					JOINT RightToe
					{
						OFFSET -0.15567 -0.42769 1.93504
						CHANNELS 3 Zrotation Yrotation Xrotation
						End Site
						{
							OFFSET -0.00000 -0.00000 1.00100
						}
					}
				}
			}
		}
	}
	JOINT lowerback
	{
		OFFSET 0 0 0
		CHANNELS 3 Zrotation Yrotation Xrotation
		JOINT Chest
		{
			OFFSET 0.00326 2.30118 -0.13017
			CHANNELS 3 Zrotation Yrotation Xrotation
			JOINT Chest2
			{
				OFFSET 0.02887 2.30677 0.00834
				CHANNELS 3 Zrotation Yrotation Xrotation
				JOINT lowerneck
				{
					OFFSET 0 0 0
					CHANNELS 3 Zrotation Yrotation Xrotation
					JOINT Neck
					{
						OFFSET 0.12946 1.68326 0.00713
						CHANNELS 3 Zrotation Yrotation Xrotation
						JOINT Head
						{
							OFFSET -0.24364 1.67243 -0.16079
							CHANNELS 3 Zrotation Yrotation Xrotation
							End Site
							{
								OFFSET -0.09229 1.70819 -0.06383
							}
						}
					}
				}
				JOINT LeftCollar
				{
					OFFSET 0 0 0
					CHANNELS 3 Zrotation Yrotation Xrotation
					JOINT LeftShoulder
					{
						OFFSET 3.28104 0.69567 -0.00556
CHANNELS 3 Zrotation Xrotation Yrotation
						JOINT LeftElbow
						{
OFFSET 0 -5.707060 -0.000000
CHANNELS 3 Zrotation Xrotation Yrotation
							JOINT LeftWrist
							{
OFFSET 0 -3.332430 0.000000
CHANNELS 3 Zrotation Xrotation Yrotation
								JOINT lhand
								{
									OFFSET 0 0 0
CHANNELS 3 Zrotation Xrotation Yrotation
									JOINT LFingers
									{
OFFSET 0 -0.792690 0.000000
CHANNELS 3 Zrotation Xrotation Yrotation
										End Site
										{
OFFSET 0 -0.639090 0.000000
										}
									}
								}
								JOINT LThumb
								{
OFFSET 0 0.000000 0.000000
CHANNELS 3 Zrotation Xrotation Yrotation
									End Site
									{
OFFSET 0 -0.648840 0.648840
									}
								}
							}
						}
					}
				}
				JOINT RightCollar
				{
					OFFSET 0 0 0
					CHANNELS 3 Zrotation Yrotation Xrotation
					JOINT RightShoulder
					{
						OFFSET -3.40955 0.64424 0.14010
CHANNELS 3 Zrotation Xrotation Yrotation
						JOINT RightElbow
						{
OFFSET 0 -5.881760 -0.000000
CHANNELS 3 Zrotation Xrotation Yrotation
							JOINT RightWrist
							{
OFFSET 0 -3.281560 0.000000
CHANNELS 3 Zrotation Xrotation Yrotation
								JOINT rhand
								{
									OFFSET 0 0 0
CHANNELS 3 Zrotation Xrotation Yrotation
									JOINT RFingers
									{
OFFSET 0 -0.863130 0.000000
CHANNELS 3 Zrotation Xrotation Yrotation
										End Site
										{
OFFSET 0 -0.695870 0.000000
										}
									}
								}
								JOINT RThumb
								{
OFFSET 0 0.000000 0.000000
CHANNELS 3 Zrotation Xrotation Yrotation
									End Site
									{
OFFSET 0 -0.706500 0.706500
									}
								}
							}
						}
					}
				}
			}
		}
	}
}
MOTION
Frames: 10
Frame Time: 0.008333333333333333
11.782000 17.439300 -28.975500 3.976900 -33.942500 39.772500 0.000000 0.000000 0.000000 5.943600 -10.653300 -51.831400 1.538800 7.831000 22.201900 -0.167000 7.476300 -0.689500 5.058200 -13.449000 -41.073300 0.000000 0.000000 0.000000 -11.808800 22.413700 -62.669100 -3.176100 -10.974900 32.195200 -0.667200 7.391400 -14.682000 -1.210300 6.979100 -19.653400 -0.942000 -3.704700 23.884700 2.494200 -4.846400 -5.461200 5.224400 -1.768800 -19.095500 13.102000 9.308600 6.725400 -24.739700 9.983800 -23.074200 -11.119300 6.037300 -5.700000 -0.000000 -0.000000 0.000000 32.209200 -16.116100 -6.613600 110.142000 -58.410100 77.350400 27.579200 -11.458200 -26.614100 0.000000 0.000000 0.000000 -7.125000 0.000000 0.000000 -2.839500 59.437100 1.001700 -0.000000 -0.000000 0.000000 -21.924400 2.312300 -12.139100 -18.161400 -28.363300 -4.625700 -0.599000 -8.919800 -23.029800 0.000000 0.000000 0.000000 7.125000 0.000000 -0.000000 17.597300 7.795200 15.834000
12.028645 17.486312 -28.686618 2.855385 -31.940460 39.855892 0.000000 0.000000 0.000000 5.863820 -10.936963 -52.872419 1.845542 8.536681 24.356477 -0.091039 5.342145 -2.076651 5.075534 -13.467673 -41.146629 0.000000 0.000000 0.000000 -11.107254 22.371829 -58.955173 -2.678640 -10.155682 29.482431 -0.718794 5.102701 -15.107396 -1.373980 7.417264 -20.957882 0.093755 -3.451879 23.268409 2.542282 -4.177924 -5.508634 4.407223 -1.608629 -18.936617 12.996015 8.259733 6.097398 -23.255387 8.749788 -22.329597 -10.496131 5.259287 -5.737125 0.000000 0.000000 0.000000 23.574605 -9.116514 -10.366644 109.934712 -58.443741 77.173692 27.950047 -13.933108 -29.018375 0.000000 0.000000 0.000000 -7.125000 0.000000 0.000000 -3.455792 62.075027 1.436155 0.000000 0.000000 0.000000 -30.243383 -0.874924 -17.119464 -16.700197 -26.460687 -3.952921 -8.615396 -12.590559 -21.078439 0.000000 0.000000 0.000000 7.125000 0.000000 0.000000 12.682582 9.104797 10.842782
12.182618 17.592071 -28.384393 2.527479 -30.485439 38.963815 0.000000 0.000000 0.000000 4.655844 -11.043893 -51.962496 1.878884 8.609092 24.579905 -0.031653 3.369451 -2.485239 5.334896 -13.750552 -42.248680 0.000000 0.000000 0.000000 -10.689280 22.530207 -54.315301 -2.137901 -9.147463 26.257750 -0.704450 3.225278 -15.090628 -1.312232 7.255545 -20.474865 0.203386 -3.084217 22.673887 2.297465 -3.702862 -5.644530 3.863142 -1.442556 -18.822886 12.658547 7.520098 5.295078 -22.262765 7.863900 -21.254302 -9.961193 4.711856 -5.527656 0.000000 0.000000 0.000000 18.791046 -0.992181 -10.323018 97.637832 -59.775764 66.609423 27.776858 -11.272313 -25.958693 0.000000 0.000000 0.000000 -7.125000 0.000000 0.000000 -2.362936 58.785867 0.796635 0.000000 0.000000 0.000000 -36.779377 -3.286508 -19.893772 -16.852320 -26.662553 -4.020876 -21.744421 -16.751279 -13.112047 0.000000 0.000000 0.000000 7.125000 0.000000 0.000000 3.842771 15.923265 2.647748
12.252640 17.728710 -28.086585 1.687464 -29.205149 38.510853 0.000000 0.000000 0.000000 4.153960 -11.079075 -49.956411 1.701440 8.214298 23.366878 -0.024378 2.834029 -1.684842 5.602666 -14.031939 -43.365431 0.000000 0.000000 0.000000 -9.291867 22.558842 -49.958579 -1.649077 -8.093381 22.998009 -0.553378 2.293595 -13.452698 -1.518975 7.782373 -22.055122 1.014817 -2.710787 21.624443 1.846912 -3.058109 -5.372676 2.744294 -1.277782 -18.595617 12.450551 6.903473 4.455221 -21.796945 6.935639 -21.300786 -9.724972 4.188275 -5.605266 0.000000 0.000000 0.000000 20.418139 6.057398 -7.482590 78.536058 -59.496571 50.088711 26.927692 -8.610193 -26.067583 0.000000 0.000000 0.000000 -7.125000 0.000000 0.000000 -3.367785 58.700869 1.128885 0.000000 0.000000 0.000000 -40.693858 -1.710498 -15.480261 -21.258477 -32.128541 -6.186951 -24.655436 -21.641210 -9.416763 0.000000 0.000000 0.000000 7.125000 0.000000 0.000000 1.641195 19.640200 0.994713
12.270088 17.906244 -27.873786 0.686079 -29.286116 38.700477 0.000000 0.000000 0.000000 4.112592 -10.813463 -47.690376 1.372073 7.412904 20.944675 -0.031424 3.784649 0.864526 5.862274 -14.293444 -44.426365 0.000000 0.000000 0.000000 -7.705006 21.972028 -48.535308 -1.442568 -7.593058 21.484602 -0.289545 3.868467 -9.569283 -1.443104 7.594454 -21.488939 0.881663 -2.424700 20.436653 1.521038 -2.791796 -5.473345 2.273733 -1.194820 -17.989920 13.010146 6.998873 3.766661 -22.367439 6.871746 -21.993348 -10.040602 4.129488 -5.636317 0.000000 0.000000 0.000000 26.188472 11.723300 -3.352345 56.646811 -55.342847 31.567624 27.909499 -6.891492 -26.827336 0.000000 0.000000 0.000000 -7.125000 0.000000 0.000000 -2.544596 59.743953 0.917692 0.000000 0.000000 0.000000 -43.273988 0.820708 -8.639149 -27.085197 -38.259076 -9.552256 -14.510508 -25.428687 -18.180739 0.000000 0.000000 0.000000 7.125000 0.000000 0.000000 8.874364 11.413400 7.032522
12.233158 18.139398 -27.691797 0.099985 -29.157974 37.861362 0.000000 0.000000 0.000000 4.337982 -11.773442 -42.928393 0.868443 5.940729 16.612715 -0.115352 7.451153 1.982281 3.335210 -11.215540 -33.014145 0.000000 0.000000 0.000000 -5.894446 21.539892 -46.042239 -1.273312 -7.151770 20.165810 -0.069320 4.383562 -5.223247 -1.117818 6.715501 -18.875435 0.819807 -2.459642 20.123760 1.467492 -2.872151 -5.538849 2.260057 -1.231886 -17.872203 12.869251 6.974935 3.276067 -22.567649 6.732308 -21.883206 -10.051377 4.056771 -5.532768 0.000000 0.000000 0.000000 32.408305 14.788366 0.328823 38.482294 -47.139494 17.319858 28.961424 -7.703974 -26.663474 0.000000 0.000000 0.000000 -7.125000 0.000000 0.000000 -1.256150 59.827981 0.453980 0.000000 0.000000 0.000000 -45.059228 3.136708 -5.177457 -32.184047 -42.692381 -12.865791 -1.221488 -23.621420 -23.858144 0.000000 0.000000 0.000000 7.125000 0.000000 0.000000 17.195864 6.967837 15.726816
12.197614 18.349130 -27.508001 -0.551056 -29.097577 37.256509 0.000000 0.000000 0.000000 5.581491 -14.300757 -37.819764 0.471867 4.405581 12.220583 -0.317694 12.154597 3.031825 3.043918 -10.765571 -31.493548 0.000000 0.000000 0.000000 -3.590018 20.091228 -44.184572 -1.110455 -6.694828 18.814467 0.097957 5.889048 0.034386 -0.559002 4.788229 -13.305559 1.091656 -2.479190 19.355048 1.581616 -2.824915 -5.793910 2.193356 -1.239717 -17.716701 12.303483 7.131987 3.855874 -22.272870 6.900638 -22.563728 -9.928941 4.192545 -5.862491 0.000000 0.000000 0.000000 37.017928 16.645055 4.446914 28.500276 -39.572196 10.441058 26.860236 -7.482747 -30.277260 0.000000 0.000000 0.000000 -7.125000 0.000000 0.000000 -5.437316 63.101921 2.392560 0.000000 0.000000 0.000000 -46.799673 4.586677 -4.798300 -34.120767 -44.173423 -14.197385 10.064212 -17.653683 -25.323303 0.000000 0.000000 0.000000 7.125000 0.000000 0.000000 23.591362 5.945315 23.129231
12.204221 18.478255 -27.372621 -0.306020 -28.264942 36.712978 0.000000 0.000000 0.000000 6.403661 -17.189462 -36.099973 0.399634 4.058707 11.241808 -0.545971 15.228760 2.958471 2.409624 -9.656848 -27.884382 0.000000 0.000000 0.000000 -3.371142 19.499295 -42.444832 -0.963180 -6.248960 17.508486 0.054046 4.417909 3.312553 -0.180565 2.735420 -7.543064 1.350933 -2.598126 18.669534 1.873813 -2.889717 -6.105725 2.387143 -1.279087 -17.670598 12.272810 7.108041 3.632111 -22.685923 6.704133 -22.940502 -10.091227 4.118854 -5.949140 0.000000 0.000000 0.000000 39.710863 17.865220 7.755332 25.505681 -36.716222 8.590496 28.960852 -8.394066 -29.196027 0.000000 0.000000 0.000000 -7.125000 0.000000 0.000000 -2.310812 62.529680 0.984705 0.000000 0.000000 0.000000 -48.529636 5.610249 -7.853318 -33.981152 -44.070696 -14.099937 14.681029 -14.337402 -23.184050 0.000000 0.000000 0.000000 7.125000 0.000000 0.000000 26.325217 7.831745 25.421306
12.276279 18.530306 -27.292009 0.290845 -27.256512 36.400510 0.000000 0.000000 0.000000 5.888319 -17.972197 -35.136498 0.268030 3.330271 9.199644 -0.564044 15.791269 3.521995 1.699477 -8.209066 -23.351314 0.000000 0.000000 0.000000 -3.799274 18.882878 -42.583923 -1.064681 -6.560037 18.418316 0.043987 4.169827 3.530834 -0.724743 5.437590 -15.161443 1.699625 -2.591254 18.752504 1.942485 -2.774694 -6.536649 2.263338 -1.252231 -18.289359 12.559012 7.097311 2.683488 -23.083533 6.569969 -22.843186 -10.224304 4.009975 -5.728849 0.000000 0.000000 0.000000 41.932026 18.386357 9.848224 25.797021 -37.007451 8.765285 30.111888 -9.381149 -27.447984 0.000000 0.000000 0.000000 -7.125000 0.000000 0.000000 -0.179709 60.962348 0.069518 0.000000 0.000000 0.000000 -49.181556 7.107183 -12.342800 -32.903719 -43.255549 -13.356154 7.817929 -17.782930 -20.620366 0.000000 0.000000 0.000000 7.125000 0.000000 0.000000 22.764273 10.319029 20.015036
12.425311 18.491904 -27.186466 -0.041287 -26.394130 37.044599 0.000000 0.000000 0.000000 5.322434 -16.993362 -35.881831 0.245670 3.188760 8.804812 -0.254253 12.838948 5.195135 3.157811 -10.925843 -32.051931 0.000000 0.000000 0.000000 -3.900433 18.335889 -42.556108 -1.043990 -6.497793 18.235901 0.054448 4.267964 2.697276 -1.153754 6.818397 -19.178981 2.876602 -2.360790 18.411996 2.093665 -2.135593 -6.781586 1.555013 -1.096982 -18.443832 12.920338 6.977370 1.789061 -23.407761 6.206855 -23.416328 -10.411929 3.784955 -5.772946 0.000000 0.000000 0.000000 42.944987 19.029563 11.114183 28.823655 -39.863405 10.647564 31.291544 -10.881835 -25.535208 0.000000 0.000000 0.000000 -7.125000 0.000000 0.000000 1.842481 59.177775 -0.638323 0.000000 0.000000 0.000000 -49.427341 7.219372 -17.580940 -30.367122 -41.205897 -11.650762 -2.828478 -21.536729 -18.321395 0.000000 0.000000 0.000000 7.125000 0.000000 0.000000 16.427372 12.175137 13.164109
